<svg version="1.1" id="Layer_1" xmlns="http://www.w3.org/2000/svg" xmlns:xlink="http://www.w3.org/1999/xlink" x="0px" y="0px" viewBox="0 0 100 100" enable-background="new 0 0 100 100" xml:space="preserve">
<path d="M11.11,58.94c2.79,2.07,5.74,2.43,10.93,2.43c0.49,0,1,0,1.53-0.01c4.1-0.04,8.26-0.24,12.38-0.57l2.78,3.13
	c1.28,1.44,3.02,2.33,4.66,2.38c0.05,0,0.1,0,0.15,0c1.09,0,2.07-0.38,2.78-1.09l1.1-1.1l2.83,3.56c0.06,0.08,0.12,0.16,0.17,0.25
	l-0.31-0.05c-0.94-0.16-1.89-0.06-2.72,0.26l-3.49,1.28c-1.37,0.52-2.48,1.57-3.05,2.89l-0.21,0.48c-0.68,1.55-0.6,3.29,0.23,4.76
	c0.83,1.48,2.27,2.46,3.9,2.69c0.26,0.04,0.51,0.06,0.78,0.06c0.1,0,0.19-0.01,0.29-0.02c-1.64,0.62-3.42,0.83-5.17,0.59l-5.92-0.81
	c-2.76-0.38-5.31-1.87-6.99-4.1l-2.3-3.05c-0.5-0.66-1.44-0.79-2.1-0.29c-0.66,0.5-0.79,1.44-0.29,2.1l2.3,3.05
	c2.16,2.86,5.43,4.78,8.98,5.27l5.92,0.81c0.61,0.08,1.23,0.13,1.84,0.13c2.45,0,4.87-0.66,6.98-1.93l7.28-4.37
	c0.17-0.11,0.35-0.23,0.56-0.39l5.8-4.62c0.02,0.02,0.05,0.03,0.07,0.05l5.32,3.67c1.7,1.17,3.87,1.27,5.67,0.27
	c0.21-0.11,0.4-0.25,0.61-0.4c1.35-1.02,2.13-2.58,2.13-4.28c0-0.19-0.01-0.38-0.03-0.57c0.62-0.33,1.23-0.71,1.82-1.15l4.78-3.6
	c2.87-2.15,4.79-5.42,5.27-8.98l0.52-3.78c0.11-0.82-0.46-1.58-1.28-1.69c-0.83-0.11-1.58,0.46-1.69,1.28l-0.52,3.78
	c-0.37,2.77-1.87,5.31-4.1,6.98l-4.78,3.6c-0.38,0.29-0.77,0.54-1.17,0.77c-0.27-0.34-0.59-0.65-0.95-0.93l-0.42-0.32
	c-1.15-0.88-2.63-1.25-4.07-1.03l-3.65,0.57c-0.91,0.14-1.78,0.52-2.52,1.11l-0.25,0.2c0-0.1,0.01-0.2,0.03-0.31l0.73-4.48l1.5,0.43
	c0.31,0.09,0.64,0.13,0.96,0.13c0.71,0,1.44-0.21,2.11-0.61c1.4-0.84,2.49-2.47,2.91-4.35l0.9-4.09c3.78-1.73,7.43-3.55,11.08-5.55
	c5.41-2.95,8.13-4.73,9.7-8.19c1.78-3.95,1.94-9.96-1.75-14.49c-1-1.22-4.71-5.18-10.41-4.87c-3.09,0.17-6.01,1.59-8.19,3.84
	c-0.66-3.07-2.4-5.78-4.99-7.58c-4.73-3.28-9.95-1.82-11.42-1.3c-5.52,1.91-8.53,7.11-9.08,11.41c-0.49,3.78,0.9,6.71,3.97,12.06
	c2.26,3.95,4.75,7.92,7.35,11.75l-1.07,3.06c-0.63,1.82-0.56,3.78,0.2,5.23c0.53,1.02,1.37,1.73,2.37,2.01l0.95,0.27l-0.79,4.82
	c-0.12,0.74-0.08,1.48,0.1,2.19l-6.93-1.14c-0.12-0.97-0.51-1.89-1.12-2.66l-3.04-3.83l0.69-0.69c0.74-0.73,1.13-1.77,1.09-2.91
	c-0.04-1.64-0.93-3.39-2.38-4.67l-2.43-2.15c0.41-4.66,0.64-9.32,0.69-13.85c0.07-6.16-0.15-9.4-2.42-12.46
	c-2.57-3.49-7.74-6.55-13.48-5.54c-1.55,0.27-6.81,1.54-9.35,6.71c-1.38,2.83-1.57,6.04-0.65,9.05c-3.01-0.9-6.25-0.72-9.03,0.64
	c-5.12,2.5-6.43,7.77-6.72,9.33C4.56,51.19,7.63,56.36,11.11,58.94z M65.59,70.36c0.33-0.26,0.71-0.43,1.11-0.49l3.66-0.58
	c0.63-0.1,1.29,0.07,1.8,0.46l0.42,0.32c0.59,0.45,0.93,1.14,0.93,1.88c0,0.75-0.34,1.44-0.93,1.88c-0.09,0.07-0.18,0.13-0.27,0.18
	c-0.79,0.44-1.75,0.4-2.5-0.12l-4.64-3.2L65.59,70.36z M50.53,28.6c0.43-3.38,2.78-7.46,7.09-8.96c1.15-0.4,5.17-1.53,8.72,0.93
	c2.91,2.02,4.44,5.77,3.89,9.54c0,0.03,0,0.06,0,0.1c0,0.05-0.01,0.11-0.01,0.16c0,0.05,0.01,0.09,0.01,0.14
	c0.01,0.05,0.01,0.1,0.02,0.14c0.01,0.05,0.03,0.09,0.04,0.14c0.01,0.05,0.03,0.09,0.05,0.13c0.02,0.04,0.04,0.09,0.07,0.13
	c0.02,0.04,0.05,0.08,0.08,0.13c0.03,0.04,0.06,0.07,0.09,0.11c0.03,0.04,0.06,0.08,0.1,0.11c0.03,0.03,0.07,0.06,0.11,0.09
	c0.04,0.03,0.07,0.06,0.12,0.09c0.04,0.03,0.09,0.05,0.14,0.08c0.03,0.01,0.05,0.03,0.08,0.05c0.01,0.01,0.03,0.01,0.04,0.01
	c0.05,0.02,0.1,0.03,0.14,0.05c0.05,0.01,0.1,0.03,0.15,0.04c0.01,0,0.03,0.01,0.04,0.01c0.03,0,0.06,0,0.1,0
	c0.05,0,0.11,0.01,0.16,0.01c0.05,0,0.1-0.01,0.15-0.01c0.05-0.01,0.09-0.01,0.14-0.02c0.05-0.01,0.1-0.03,0.15-0.04
	c0.04-0.01,0.09-0.03,0.13-0.05c0.04-0.02,0.09-0.04,0.13-0.07c0.04-0.02,0.08-0.05,0.12-0.08c0.04-0.03,0.07-0.06,0.11-0.09
	c0.04-0.03,0.08-0.06,0.11-0.1c0.03-0.03,0.06-0.07,0.09-0.11c0.03-0.04,0.06-0.07,0.08-0.11c0.03-0.05,0.06-0.1,0.08-0.14
	c0.01-0.03,0.03-0.05,0.05-0.08c1.51-3.5,4.76-5.89,8.3-6.08c4.3-0.23,7.15,2.83,7.93,3.77c2.87,3.53,2.74,8.24,1.34,11.35
	c-1.05,2.32-2.78,3.72-8.4,6.79c-3.92,2.13-7.81,4.07-11.89,5.91l-0.89,0.4c-0.19,0-0.38,0-0.57-0.01
	c-0.71-0.05-1.41-0.16-2.08-0.34c-0.8-0.21-1.56-0.49-2.31-0.86c-0.03-0.02-0.06-0.04-0.09-0.05c-0.94-0.47-1.83-1.08-2.64-1.8
	c-0.02-0.02-0.04-0.03-0.05-0.04c-0.06-0.05-0.12-0.09-0.18-0.13c-0.06-0.04-0.12-0.06-0.19-0.09c-0.03-0.01-0.05-0.03-0.08-0.04
	c0,0,0,0,0,0c-0.13-0.05-0.27-0.07-0.41-0.07c-2.41-3.58-4.68-7.22-6.75-10.83C50.94,33.23,50.2,31.14,50.53,28.6z M60.67,58.93
	c-0.37-0.71-0.38-1.83-0.03-2.85l0.88-2.52c0.47,0.32,0.96,0.61,1.46,0.87c0.03,0.02,0.06,0.04,0.1,0.05
	c0.97,0.49,1.96,0.87,2.99,1.13c0.84,0.23,1.73,0.37,2.64,0.43c0.19,0.01,0.39,0.01,0.58,0.02l-0.51,2.31
	c-0.23,1.06-0.83,2.01-1.52,2.42c-0.19,0.11-0.47,0.23-0.72,0.17l-5.36-1.52C60.94,59.37,60.77,59.13,60.67,58.93z M45.21,77.27
	c-0.74-0.1-1.38-0.54-1.74-1.19c-0.36-0.65-0.4-1.41-0.1-2.1l0.21-0.48c0.25-0.59,0.73-1.04,1.34-1.27l3.5-1.29
	c0.24-0.09,0.51-0.14,0.78-0.14c0.13,0,0.26,0.01,0.39,0.03l0.54,0.09l-2.47,5.05c-0.41,0.82-1.23,1.33-2.13,1.33
	C45.44,77.3,45.35,77.3,45.21,77.27z M53.2,71.49c0.01-0.02,0.02-0.04,0.03-0.06l5.14,0.85l-3.29,2.62c-0.1,0.08-0.21,0.15-0.29,0.2
	l-4.87,2.93c0.16-0.23,0.31-0.47,0.44-0.73L53.2,71.49z M48.33,58.46c0.01,0.22-0.03,0.52-0.21,0.7l-3.92,3.93
	c-0.19,0.19-0.51,0.22-0.71,0.21c-0.8-0.02-1.79-0.56-2.51-1.37l-1.58-1.78c0.17-0.1,0.34-0.19,0.5-0.3
	c0.76-0.5,1.47-1.06,2.08-1.66c0.78-0.74,1.46-1.55,2.07-2.46c0.02-0.03,0.04-0.06,0.06-0.1c0.31-0.47,0.59-0.96,0.85-1.47l2,1.77
	C47.77,56.67,48.31,57.65,48.33,58.46z M8.52,45.97c0.22-1.2,1.23-5.28,5.08-7.17c3.18-1.56,7.19-1.06,10.21,1.26
	c0.03,0.02,0.06,0.04,0.09,0.06c0.04,0.03,0.08,0.05,0.13,0.08c0.05,0.03,0.1,0.05,0.15,0.06c0.04,0.02,0.08,0.03,0.12,0.04
	c0.05,0.02,0.11,0.03,0.16,0.04c0.04,0.01,0.08,0.01,0.12,0.02c0.05,0.01,0.11,0.01,0.16,0.01c0.04,0,0.09,0,0.13,0
	c0.05,0,0.1-0.01,0.15-0.02c0.04-0.01,0.09-0.02,0.13-0.03c0.05-0.01,0.1-0.03,0.15-0.05c0.04-0.02,0.08-0.03,0.12-0.05
	c0.05-0.03,0.1-0.06,0.14-0.09c0.03-0.02,0.05-0.03,0.08-0.05c0.01-0.01,0.02-0.02,0.03-0.03c0.04-0.03,0.08-0.07,0.11-0.11
	c0.04-0.04,0.07-0.07,0.11-0.11c0.01-0.01,0.02-0.02,0.03-0.03c0.02-0.03,0.03-0.05,0.05-0.08c0.03-0.05,0.06-0.09,0.09-0.14
	c0.02-0.04,0.04-0.09,0.06-0.13c0.02-0.05,0.04-0.09,0.05-0.14c0.01-0.05,0.02-0.1,0.03-0.14c0.01-0.05,0.02-0.09,0.02-0.14
	c0-0.05,0.01-0.1,0.01-0.15c0-0.05,0-0.09,0-0.14c0-0.05-0.01-0.1-0.02-0.14c-0.01-0.05-0.02-0.09-0.03-0.14
	c-0.01-0.05-0.03-0.1-0.05-0.14c-0.02-0.04-0.03-0.08-0.06-0.12c-0.03-0.05-0.06-0.1-0.09-0.14c-0.02-0.03-0.03-0.05-0.05-0.08
	c-2.32-3.02-2.81-7.04-1.26-10.22c1.91-3.89,5.96-4.87,7.17-5.07c4.47-0.79,8.53,1.62,10.55,4.36c1.52,2.06,1.9,4.25,1.83,10.65
	c-0.04,4.17-0.25,8.45-0.6,12.75c-0.12,0.07-0.23,0.16-0.32,0.26c0,0,0,0,0,0c0,0,0,0,0,0.01c-0.12,0.14-0.22,0.31-0.29,0.5
	c-0.36,1.03-0.84,1.99-1.43,2.86c-0.02,0.03-0.04,0.06-0.06,0.09c-0.47,0.69-1,1.31-1.6,1.89c-0.49,0.48-1.04,0.91-1.64,1.3
	c-0.16,0.1-0.32,0.19-0.49,0.29l-0.97,0.08c-4.4,0.38-8.86,0.59-13.26,0.64c-6.41,0.06-8.6-0.31-10.65-1.83
	C10.15,54.5,7.74,50.45,8.52,45.97z" id="id_101" style="fill: rgb(0, 128, 0);"></path>
</svg>