<svg version="1.1" id="Layer_1" xmlns="http://www.w3.org/2000/svg" xmlns:xlink="http://www.w3.org/1999/xlink" x="0px" y="0px" viewBox="0 0 256 256" enable-background="new 0 0 256 256" xml:space="preserve">
<path d="M101.9,194.7L98,208.3l-5.8,1.6c-1.4,0.4-2.5,1.4-3,2.7c-0.2,0.4-0.2,0.9-0.3,1.3c-4.1,1.1-8.3,2.5-12.5,4l-1,0.4
	c-6.6,2.4-14.8,5.4-19.3,11.3c-3.3,4.2-3.7,10.5-1.1,15.4c3.2,6,10.3,8.1,17.4,8.1c4.7,0,9.5-1,13.1-2.4l3.5-1.4l33.3-13.9
	l31.8,13.7c6.5,2.8,13.3,4.2,20.2,4.2c0.1,0,0.3,0,0.5,0c0.2,0,0.4,0,0.6,0c2.3-0.1,4.8-0.1,7.2-0.3c0.9-0.1,1.9-0.1,2.9-0.1
	c2.2,0,4.4,0,6.7-0.6c4.7-1.3,8.4-4.8,9.8-9.4c1.4-4.5,0.4-9.3-2.7-13c-2.3-2.7-5.7-4.1-8.6-5.2c-0.7-0.3-1.5-0.6-2.2-0.9l-15-6.5
	c0.4-1.7-0.5-3.4-2.1-4.2l-7-3.3c-1.4-0.7-3-0.9-4.6-0.7l-1.4,0.2l-4.9-14.6l-1.9-5.7c-2.5-7.5-2.5-15.3,0-22.8
	c1.8-5.6,2.4-11.6,1.7-17.4l-0.1-1.1l6.3-24.2c2.5-9.9,3.2-20.2,2.2-30.4l-1.9-19.4c0-0.2-0.1-0.4-0.2-0.6l-20.3-44.5l-6.6-25.1
	c-0.2-0.9-1-1.5-1.9-1.5h-5.6c-0.9,0-1.7,0.6-1.9,1.5l-6.6,25.1L96.3,73.1c-0.1,0.2-0.2,0.4-0.2,0.6l-1.9,19.4
	c-1,10.2-0.2,20.4,2.2,30.4l5.8,23.2l-0.2,2c-0.7,5.8-0.1,11.9,1.7,17.4c2.4,7.5,2.4,15.3,0,22.8L101.9,194.7z M93,213.9
	c0-0.1,0.1-0.2,0.3-0.2l7.7-2.1c1.3-0.4,2.7-0.1,3.8,0.7l5.6,4.2c0.5,0.4,1.1,0.5,1.6,0.3l6.5-1.5c1.2-0.3,2.5-0.1,3.6,0.4
	c1.1,0.5,1.9,1.3,2.5,2.3c-3.2,0.2-11.4,0.7-18.3,1.7l-5.5-5c-0.4-0.4-0.9-0.5-1.4-0.5l-6,0.2c-0.2,0-0.3-0.1-0.3-0.2
	C93,214.2,92.9,214.1,93,213.9z M87.6,245.6l-3.4,1.3c-3.3,1.3-8.8,2.5-14.3,2c-3.9-0.3-9-1.6-11.3-5.9c-1.9-3.5-1.6-8.1,0.7-11.1
	c3.9-4.9,11.5-7.7,17.6-10l1-0.4c4.3-1.6,8.6-3,12.8-4.1c0.8,0.6,1.8,1,2.9,0.9l5.2-0.2l2.6,2.3c-1.9,0.4-3.6,0.9-4.6,1.4l-15.8,7.9
	l1.8,3.6l8.1-4.1l-1.3,15.4L87.6,245.6z M127.6,233.3l11.3-4.4c7.8,0.4,19.4,1.3,23.6,2.2l2.3,17.3c-3.1-0.7-6.1-1.6-9.1-2.9
	L127.6,233.3z M189.2,228.4c2.7,1.1,5.4,2.1,7.1,4.1c2.2,2.6,2.9,6,1.9,9.2c-1,3.3-3.6,5.8-7,6.7c-1.8,0.5-3.7,0.5-5.7,0.5
	c-1,0-2.1,0-3.1,0.1c-2.3,0.2-4.7,0.2-7,0.3l-0.5,0c-1.9,0-3.8-0.1-5.8-0.3l-2.2-16c3.7,2.3,8.8,6.1,10.9,7.8l2.5-3.1
	c-1.1-0.9-11-8.6-15.3-10.1c-2.5-0.9-10.9-1.7-17.5-2.1l12.2-5.1h10.1c0.2,0,0.4,0,0.5,0l16.5,7.2
	C187.6,227.8,188.4,228.1,189.2,228.4z M160.4,213c0.8-0.1,1.6,0,2.3,0.3l6.2,2.9h-9.6c-0.3,0-0.5,0.1-0.8,0.2l-16.7,6.9l-17.4,6.8
	l-30.8,12.9l1.3-15.8l3.5-1.8c4-2,21.2-3.2,27.4-3.6c0.3,0,0.6-0.1,0.9-0.2l6-3.3c1.6-0.9,2.9-2.3,3.6-4l0.8-2
	c0.6-1.4,1.8-2.3,3.3-2.5c0.7-0.1,1.5,0,2.2,0.4l8.1,3.8c0.4,0.2,0.8,0.2,1.1,0.2L160.4,213z M154.4,209.9l-2.5,0.4l-7.5-3.5
	c-1.3-0.6-2.8-0.9-4.3-0.7c-2.9,0.3-5.5,2.2-6.6,4.9l-0.8,2c-0.4,0.9-1,1.6-1.8,2l-2.7,1.5c-1-1.9-2.5-3.4-4.5-4.3
	c-1.9-0.9-4.1-1.1-6.2-0.7l-5.6,1.3l-4.9-3.6c-1.4-1-3-1.6-4.7-1.6l2.9-10.2h44.9L154.4,209.9z M106,149.2l0.7-6.2
	c0.7-6.1,5.3-11.2,11.3-12.5l0.1,0v2c0,5.2,4.3,9.5,9.5,9.5c5.2,0,9.5-4.3,9.5-9.5v-2.1l0.2,0c6,1.4,10.5,6.4,11.2,12.5l0.8,6.3
	c0.6,5.3,0.1,10.7-1.5,15.7c-1.8,5.4-2.4,11-1.8,16.6h-36.6c0.6-5.5,0-11.1-1.8-16.6C105.9,159.9,105.4,154.5,106,149.2z
	 M110.7,79.5l6.9-16.6c0-0.1,0.1-0.1,0.1-0.2l6.2-20.9l4.1-3.7l4.1,3.7l6.2,20.9c0,0.1,0,0.1,0.1,0.2l6.9,16.5l-1.5,7.7
	c-1.1-2-2.4-3.7-4-5.2c0.1-0.5,0.2-1,0.2-1.6c0-6.8-5.6-12.4-12.4-12.4c-6.8,0-12.4,5.6-12.4,12.4c0,0.6,0.1,1.1,0.2,1.6
	c-1.4,1.4-2.7,3-3.7,4.8L110.7,79.5z M138.3,126.5l-1.1-0.2V122c1-0.9,2-2,2.8-3.2l-1,8C138.8,126.7,138.6,126.6,138.3,126.5z
	 M127.7,76.9c-3,0-5.8,0.8-8.3,2.2c0.6-4,4.1-7.1,8.3-7.1c4.2,0,7.7,3.1,8.3,7.1C133.5,77.7,130.7,76.9,127.7,76.9z M127.7,80.9
	c6.4,0,11.9,4.8,14.1,11.6c-3.5-4.2-8.5-6.7-14.1-6.7c-5.6,0-10.7,2.8-14.3,7.3C115.4,86,121.1,80.9,127.7,80.9z M127.7,89.8
	c7.1,0,13.1,5.4,14.8,13.1c-1.5,9.3-7.8,19.3-14.8,19.3c-6.9,0-13.1-9.6-14.7-18.8C114.7,95.5,120.8,89.8,127.7,89.8z M122.2,124.8
	c1.7,0.9,3.6,1.4,5.5,1.4c1.9,0,3.8-0.5,5.5-1.4v7.7c0,3-2.5,5.5-5.5,5.5c-3,0-5.5-2.5-5.5-5.5V124.8z M118.2,122v4.4l-0.9,0.2
	c-0.1,0-0.2,0.1-0.3,0.1l-1.1-7.2C116.6,120.4,117.4,121.2,118.2,122z M107.6,190.2c0.5-1.6,0.9-3.1,1.3-4.7h37.7
	c0.3,1.6,0.7,3.2,1.3,4.7l1,3h-42.3L107.6,190.2z M135.5,29.8c0,0.1,0.1,0.2,0.1,0.3l20.3,44.3l1.8,19.1c0.9,9.8,0.2,19.5-2.1,29
	l-4.1,15.7c-1.6-4.2-4.6-7.7-8.6-9.9l2.5-20.4c0.9-3,1.4-6.1,1.4-9c0-1.4-0.1-2.7-0.3-4l2.9-15.3c0.1-0.4,0-0.8-0.1-1.1l-7.1-17
	l-6.3-21.3c-0.1-0.3-0.3-0.7-0.6-0.9l-5.2-4.8V8.8L135.5,29.8z M98.3,93.5l1.8-19.1l20.3-44.3c0-0.1,0.1-0.2,0.1-0.3l5.5-21v25.7
	l-5.2,4.8c-0.3,0.2-0.5,0.6-0.6,0.9l-6.3,21.3l-7.1,17c-0.1,0.3-0.2,0.7-0.1,1.1l2.3,15.2c-0.2,1.3-0.3,2.7-0.3,4.1
	c0,3,0.5,6.1,1.4,9.2l3.1,19.9c-4,2-7.2,5.4-9,9.5l-3.7-15C98.1,113,97.3,103.3,98.3,93.5z" id="id_101" style="fill: rgb(0, 128, 0);"></path>
<path d="M127.9,121.5c1.4,0,2.8-0.5,3.9-1.6c1.2-1.1,1.8-2.7,1.7-4.3c0,0,0-0.1,0-0.1l-0.6-5.7c-0.1-1-1-1.8-2-1.8h-5.5
	c-1,0-1.8,0.7-2,1.6l-1,5.6c0,0.1,0,0.1,0,0.2c-0.1,1.7,0.5,3.3,1.7,4.5C125.2,121,126.6,121.5,127.9,121.5z M127.1,112.1h2l0.4,3.8
	c0,0.4-0.2,0.8-0.5,1.2c-0.6,0.5-1.5,0.5-2.1,0c-0.3-0.3-0.5-0.7-0.5-1.2L127.1,112.1z" id="id_102" style="fill: rgb(3, 130, 7);"></path>
</svg>