<svg version="1.1" id="Capa_1" xmlns="http://www.w3.org/2000/svg" xmlns:xlink="http://www.w3.org/1999/xlink" x="0px" y="0px" viewBox="0 0 512 512" style="enable-background:new 0 0 512 512;" xml:space="preserve">
<g>
	<g>
		<path d="M216,380.001c-5.52,0-10,4.48-10,10s4.48,10,10,10s10-4.48,10-10S221.52,380.001,216,380.001z" id="id_101" style="fill: rgb(0, 128, 0);"></path>
	</g>
</g>
<g>
	<g>
		<path d="M196,140.003c-5.52,0-10,4.48-10,10s4.48,10,10,10c5.52,0,10-4.48,10-10S201.52,140.003,196,140.003z" id="id_102" style="fill: rgb(0, 133, 4);"></path>
	</g>
</g>
<g>
	<g>
		<path d="M465.283,286.288c-28.897-72.244-37.034-92.585-39.454-98.548C419.128,79.848,339.301,6.285,248.626,0.415
			C136.575-6.845,46.002,82.16,46.002,190.002c0,61.708,29.796,119.194,79.972,154.851c0.027,56.95,0.027,157.147,0.027,157.147
			c0,5.523,4.477,10,10,10h179.999c5.523,0,10-4.477,10-10v-77.305l43.799,10.263c0.107,0.025,0.215,0.048,0.323,0.07
			c8.846,1.765,17.92-0.503,24.897-6.225c6.979-5.723,10.98-14.18,10.98-23.202v-33.239l18.944-37.889
			c1.408-2.815,1.408-6.129,0-8.944l-12.764-25.528h43.82c3.319,0,6.421-1.646,8.282-4.394
			C466.139,292.86,466.515,289.369,465.283,286.288z M395.999,280.003v-0.001c-3.466,0-6.685,1.794-8.506,4.743
			c-1.822,2.948-1.988,6.629-0.438,9.729l17.764,35.528l-17.764,35.528c-0.694,1.389-1.056,2.92-1.056,4.472v35.6
			c0,3.008-1.335,5.828-3.663,7.737c-2.292,1.879-5.26,2.643-8.166,2.103c-0.122-0.029-116.532-27.296-116.661-27.326
			c-5.375-1.257-10.758,2.08-12.017,7.457c-1.259,5.377,2.08,10.757,7.457,12.017l53.05,12.422v71.99H146
			c-0.001-27.803-0.005-106.961-0.03-152.404c-0.002-3.335-1.667-6.45-4.438-8.305C94.237,299.642,66,246.823,66,190.003
			c0-97.991,82.395-176.035,181.333-169.63c86.765,5.617,153.475,77.142,158.62,170.073c0.063,1.129,0.316,2.236,0.747,3.275
			c0.726,1.789,20.546,51.33,34.528,86.281H395.999z" id="id_103" style="fill: rgb(3, 133, 7);"></path>
	</g>
</g>
<g>
	<g>
		<path d="M214.547,62.492c-32.139,7.468-57.968,33.009-65.8,65.067c-6.628,27.121-0.908,55.068,15.693,76.674
			c13.904,18.105,21.561,41.456,21.561,65.768c0,27.622,22.374,50,50,50c27.57,0,50-22.43,50-50c0-11.899,2.042-23.825,6.072-35.455
			c3.895-11.277,9.609-22.148,16.983-32.314c11.085-15.285,16.945-33.346,16.945-52.231
			C325.999,92.557,272.774,48.963,214.547,62.492z M236,300.002c-13.318,0-24.273-8.706-28.295-20.1h56.575
			C260.152,291.541,249.036,300.002,236,300.002z M292.865,190.49c-8.531,11.761-15.158,24.387-19.694,37.517
			c-3.636,10.492-5.902,21.215-6.769,31.995H205.63c-1.859-25.064-10.689-48.886-25.331-67.952
			c-13.076-17.018-17.382-38.235-12.125-59.744c6.06-24.799,26.039-44.557,50.899-50.333C264.532,71.41,306,105.207,306,150.002
			C306,164.643,301.458,178.642,292.865,190.49z" id="id_104" style="fill: rgb(2, 133, 6);"></path>
	</g>
</g>
<g>
	<g>
		<path d="M236,100.003c-8.803,0-17.457,2.32-25.026,6.709c-4.777,2.771-6.405,8.89-3.634,13.667
			c2.771,4.778,8.89,6.405,13.667,3.634c4.524-2.624,9.709-4.011,14.993-4.011c16.542,0,30,13.458,30,30c0,5.523,4.477,10,10,10
			c5.523,0,10-4.477,10-10C286,122.432,263.57,100.003,236,100.003z" id="id_105" style="fill: rgb(2, 135, 6);"></path>
	</g>
</g>
<g>
</g>
<g>
</g>
<g>
</g>
<g>
</g>
<g>
</g>
<g>
</g>
<g>
</g>
<g>
</g>
<g>
</g>
<g>
</g>
<g>
</g>
<g>
</g>
<g>
</g>
<g>
</g>
<g>
</g>
</svg>