<svg xmlns="http://www.w3.org/2000/svg" xml:space="preserve" width="512px" height="512px" version="1.1" style="shape-rendering:geometricPrecision; text-rendering:geometricPrecision; image-rendering:optimizeQuality; fill-rule:evenodd; clip-rule:evenodd" viewBox="0 0 512 512" xmlns:xlink="http://www.w3.org/1999/xlink">
 <defs>
  <style type="text/css">
   
    .fil0 {fill:black}
   
  </style>
 </defs>
 <g id="Layer_x0020_1">
  <metadata id="CorelCorpID_0Corel-Layer"></metadata>
  <g id="_610187720">
   <g>
    <g>
     <path class="fil0" d="M505 425c-1,0 -2,0 -3,-1 -57,-28 -124,-46 -194,-51 -3,0 -6,-4 -6,-7 0,-4 4,-7 7,-7 66,5 129,20 184,46 -29,-100 -29,-239 0,-339 -69,32 -152,49 -237,49 -85,0 -169,-17 -238,-49 29,100 29,239 0,339 56,-26 119,-41 184,-46 4,0 8,3 8,7 0,3 -3,7 -7,7 -69,5 -136,23 -193,51 -2,2 -5,1 -8,-1 -2,-2 -2,-4 -2,-7 35,-103 35,-258 0,-361 0,-2 0,-5 2,-7 3,-2 6,-2 8,-1 145,72 347,72 492,0 2,-2 5,-1 7,1 3,2 3,5 2,7 -34,103 -34,258 1,361 0,3 0,6 -2,7 -2,1 -3,2 -5,2z" id="id_101" style="fill: rgb(0, 128, 0);"></path>
    </g>
    <g>
     <path class="fil0" d="M256 364c0,0 0,0 -1,0 -30,-2 -52,-23 -62,-62 -5,-19 -7,-41 -6,-66 0,-1 0,-2 0,-2 0,-3 2,-6 5,-7 58,-21 60,-47 60,-47 0,-2 1,-4 2,-6 2,-1 4,-1 6,-1 3,1 65,14 65,61 0,0 0,1 0,2 1,25 -1,47 -6,66 -10,38 -32,60 -63,62 0,0 0,0 0,0zm-55 -125c-1,34 3,107 55,111 53,-4 56,-81 55,-114 0,-1 0,-2 0,-2 0,-28 -32,-41 -47,-45 -4,11 -18,32 -63,50z" id="id_102" style="fill: rgb(3, 130, 7);"></path>
    </g>
    <g>
     <path class="fil0" d="M358 360c-42,0 -66,-16 -67,-17 -3,-2 -4,-7 -2,-10 3,-3 7,-4 10,-2 0,0 30,21 83,13 -16,-15 -17,-29 -20,-45 0,-5 -1,-12 -3,-18 -8,-36 -19,-71 -20,-75 -21,-53 -80,-55 -81,-55 -43,-1 -79,35 -89,71 -10,36 4,67 39,86 3,2 4,6 2,9 -2,4 -6,5 -9,3 -40,-22 -57,-60 -46,-102 6,-22 20,-42 38,-57 19,-16 42,-25 65,-24 1,0 18,0 38,8 27,11 47,30 57,56 0,1 0,1 0,1 0,0 11,38 20,75 2,8 3,15 3,21 3,18 4,29 26,44 3,2 4,5 3,7 0,3 -2,5 -5,6 -16,3 -30,5 -42,5z" id="id_103" style="fill: rgb(5, 133, 9);"></path>
    </g>
    <g>
     <path class="fil0" d="M427 466l-342 0c-2,0 -4,-1 -6,-3 -1,-2 -1,-4 -1,-7 23,-55 50,-61 74,-67 15,-3 29,-7 42,-23 1,-1 2,-3 3,-4 0,0 0,0 0,0 5,-7 10,-15 14,-27 2,-3 6,-5 10,-3 3,1 5,5 3,9 -4,11 -9,21 -14,28l46 76 46 -76c-5,-7 -10,-17 -14,-28 -2,-4 0,-8 4,-9 3,-2 7,0 9,3 4,12 9,20 14,27 0,0 0,0 0,0 1,1 3,3 3,4 13,16 27,20 42,23 24,6 51,12 74,67 0,3 0,5 -1,7 -2,2 -4,3 -6,3zm-159 -14l148 0c-18,-39 -38,-44 -59,-49 -15,-4 -31,-7 -45,-22l-44 71zm-172 0l148 0 -44 -71c-14,15 -30,18 -45,22 -21,5 -41,10 -59,49z" id="id_104" style="fill: rgb(5, 130, 9);"></path>
    </g>
    <g>
     <path class="fil0" d="M415 263l-31 0c-2,0 -5,-1 -6,-3 -1,-2 -1,-5 0,-7l10 -23 -13 0c-4,0 -7,-3 -7,-7 0,-4 3,-7 7,-7l24 0c2,0 5,1 6,3 1,2 1,5 0,7l-10 23 20 0c4,0 7,3 7,7 0,4 -3,7 -7,7z" id="id_105" style="fill: rgb(4, 130, 8);"></path>
    </g>
    <g>
     <path class="fil0" d="M452 208l-31 0c-2,0 -5,-1 -6,-3 -1,-2 -1,-5 0,-7l10 -23 -13 0c-4,0 -7,-3 -7,-7 0,-4 3,-7 7,-7l24 0c2,0 5,1 6,3 1,2 1,5 0,7l-10 23 20 0c4,0 7,3 7,7 0,4 -3,7 -7,7z" id="id_106" style="fill: rgb(4, 128, 8);"></path>
    </g>
    <g>
     <path class="fil0" d="M60 363c0,0 -1,0 -2,0 -3,-1 -6,-5 -5,-9 18,-75 17,-174 -3,-246 -1,-4 1,-8 5,-9 4,-1 8,1 9,5 20,75 21,176 3,254 -1,3 -4,5 -7,5z" id="id_107" style="fill: rgb(5, 128, 9);"></path>
    </g>
   </g>
  </g>
 </g>
</svg>